<svg width="20" height="20" viewBox="0 0 20 20" xmlns="http://www.w3.org/2000/svg"><title>Fill 6</title><path d="M7.463 10.334H4.978v2.556h2.389c.583 0 1.056-.473 1.056-1.056v-.54a.96.96 0 0 0-.96-.96zm9.37 1.313h-4.405s-.071 1.435 1.46 1.435c1.53 0 1.41-.819 1.41-.819h1.494s.04.334-.1.728c-.142.394-.6 1.515-2.966 1.515-2.541 0-3.107-2.182-3.107-3.152 0-.97.19-3.708 3.415-3.708 3.268 0 2.799 4.001 2.799 4.001zm-7.728 2.354c-.768.566-1.819.566-1.819.566H3.144V5.433h4.405c1.415 0 2.445.718 2.445 2.239 0 1.466-1.111 1.742-1.111 1.742s1.374.485 1.374 2.04c0 1.254-.384 1.981-1.152 2.547zm2.842-7.921h3.567v.97h-3.567v-.97zM0 0v20h13.168L20 13.168V0H0zm13.94 8.98c-1.354 0-1.455 1.323-1.455 1.323h2.758s.05-1.323-1.303-1.323zm-5.911-.753v-.404a.743.743 0 0 0-.743-.743H4.978v1.89h2.308c.41 0 .743-.333.743-.743z" fill="#1D232F" fill-rule="evenodd"/></svg>