<svg width="20" height="20" viewBox="0 0 20 20" xmlns="http://www.w3.org/2000/svg"><title>Fill 6</title><path d="M7.463 10.334H4.978v2.556h2.39c.582 0 1.055-.473 1.055-1.056v-.54a.96.96 0 0 0-.96-.96zm9.37 1.313h-4.405s-.07 1.435 1.46 1.435 1.41-.82 1.41-.82h1.494s.04.335-.1.73c-.142.393-.6 1.514-2.966 1.514-2.54 0-3.107-2.182-3.107-3.152 0-.97.19-3.708 3.414-3.708 3.268 0 2.8 4 2.8 4zM9.105 14c-.768.567-1.82.567-1.82.567h-4.14V5.433h4.404c1.414 0 2.444.718 2.444 2.24 0 1.465-1.11 1.74-1.11 1.74s1.373.486 1.373 2.042c0 1.253-.384 1.98-1.152 2.546zm2.842-7.92h3.567v.97h-3.567v-.97zM0 0v20h13.168L20 13.168V0H0zm13.94 8.98c-1.354 0-1.455 1.323-1.455 1.323h2.758s.05-1.323-1.303-1.323zm-5.91-.753v-.404a.743.743 0 0 0-.744-.743H4.978v1.89h2.308c.41 0 .743-.333.743-.743z" fill="#1D232F" fill-rule="evenodd"/></svg>