<svg width="20" height="20" viewBox="0 0 20 20" xmlns="http://www.w3.org/2000/svg"><title>Fill 9</title><path d="M15.257 15.258a3.373 3.373 0 0 1-4.34.36 5.74 5.74 0 0 1-6.65-6.708 3.374 3.374 0 0 1 4.712-4.603 5.74 5.74 0 0 1 6.596 6.552 3.373 3.373 0 0 1-.32 4.4v-.002zM0 0v20h13.168L20 13.168V0H0zm12.173 9.718c-1.128-.482-2.977-.596-3.535-1.19-.557-.597.266-1.218 1.09-1.205.823.013 1.14.127 1.482.71.168.286.376.478.544.598.24.174.558.22.817.077.16-.087.302-.246.338-.535.088-.722-.482-1.8-2.255-2.027-1.774-.228-3.18.308-3.687 1.332-.507 1.024.102 2.203 1.128 2.67 1.026.47 3.18.344 3.37 1.433.19 1.09-.996 1.346-1.724 1.242-.99-.143-1.368-.875-1.71-1.533-.342-.66-1.57-.28-1.368.644C6.865 12.86 7.904 14 9.576 14c1.672 0 2.952-.418 3.446-1.47.494-1.05.278-2.33-.85-2.812z" fill="#1D232F" fill-rule="evenodd"/></svg>