<svg width="20" height="20" viewBox="0 0 20 20" xmlns="http://www.w3.org/2000/svg"><title>Fill 1</title><path d="M14.923 12.767c-3.064 0-4.01-2.398-4.24-3.94-.065-1.158-.47-1.846-.738-1.846-.267 0-.672.69-.738 1.848-.228 1.54-1.176 3.94-4.24 3.94-3.063 0-4.01-2.4-4.24-3.94C.664 7.68.348 7.354 0 6.99v12.9h13.09l6.8-6.8v-6.1c-.345.364-.662.69-.728 1.838-.228 1.54-1.175 3.94-4.24 3.94zm0-.826c3.042 0 3.355-2.986 3.355-3.872 0-.48.028-1.654-.868-2.04-.784-.337-1.502-.35-2.487-.35-.985 0-1.703.013-2.487.35-.896.386-.868 1.56-.868 2.04 0 .886.313 3.873 3.355 3.873zM0 0v5.495c.7-.002 1.825-.2 1.825-.2.99-.425 1.898-.444 3.142-.444 1.245 0 2.152.02 3.143.446 0 0 1.136.2 1.835.2.7 0 1.836-.2 1.836-.2.99-.426 1.9-.445 3.143-.445 1.244 0 2.152.02 3.143.446 0 0 1.125.197 1.825.2V0H0zm4.967 11.94c3.042 0 3.356-2.986 3.356-3.872 0-.48.028-1.654-.87-2.04-.783-.337-1.5-.35-2.486-.35-.984 0-1.702.013-2.486.35-.896.386-.867 1.56-.867 2.04 0 .886.313 3.873 3.354 3.873z" fill="#FF0091" fill-rule="evenodd"/></svg>