<svg width="20" height="20" viewBox="0 0 20 20" xmlns="http://www.w3.org/2000/svg"><title>Fill 1</title><path d="M14.923 12.767c-3.064 0-4.011-2.398-4.24-3.939-.065-1.16-.47-1.847-.738-1.847-.267 0-.672.688-.738 1.847-.228 1.54-1.176 3.939-4.24 3.939-3.063 0-4.01-2.398-4.239-3.939C.663 7.68.346 7.354 0 6.991v12.9h13.09l6.8-6.802V6.991c-.345.363-.662.689-.728 1.837-.228 1.54-1.175 3.939-4.239 3.939zm0-.826c3.042 0 3.355-2.987 3.355-3.873 0-.481.028-1.654-.868-2.04-.784-.337-1.502-.351-2.487-.351-.985 0-1.703.014-2.487.352-.896.385-.868 1.558-.868 2.039 0 .886.313 3.873 3.355 3.873zM0 0v5.495c.7-.002 1.825-.2 1.825-.2.99-.425 1.898-.444 3.142-.444 1.245 0 2.152.019 3.143.445 0 0 1.136.199 1.835.199.7 0 1.836-.2 1.836-.2.99-.425 1.898-.444 3.142-.444s2.152.019 3.143.445c0 0 1.125.197 1.825.199V0H0zm4.967 11.941c3.042 0 3.356-2.987 3.356-3.873 0-.481.028-1.654-.869-2.04-.784-.337-1.502-.351-2.487-.351-.984 0-1.702.014-2.486.352-.897.385-.868 1.558-.868 2.039 0 .886.313 3.873 3.354 3.873z" fill="#1D232F" fill-rule="evenodd"/></svg>