<?xml version="1.0" encoding="UTF-8" standalone="no"?>
<svg width="20px" height="20px" viewBox="0 0 20 20" version="1.1" xmlns="http://www.w3.org/2000/svg" xmlns:xlink="http://www.w3.org/1999/xlink">
    <!-- Generator: Sketch 3.7.2 (28276) - http://www.bohemiancoding.com/sketch -->
    <title>Fill 1</title>
    <desc>Created with Sketch.</desc>
    <defs></defs>
    <g id="Contact" stroke="none" stroke-width="1" fill="none" fill-rule="evenodd">
        <g id="Contact-Mobile" transform="translate(-19.000000, -556.000000)" fill="#1D232F">
            <path d="M37.3068467,563.111388 L33.2655749,563.111388 C32.2453309,561.890045 30.7120257,561.111842 29,561.111842 C27.2880774,561.111842 25.7547722,561.890354 24.7345282,563.111388 L20.6932565,563.111388 L20.6932565,557.437602 L37.3068467,557.437602 L37.3068467,563.111388 Z M29,570.885889 C26.533697,570.885889 24.527035,568.879536 24.527035,566.413233 C24.527035,563.94693 26.533697,561.940165 29,561.940165 C31.466303,561.940165 33.4730682,563.94693 33.4730682,566.413233 C33.4730682,568.879536 31.466303,570.885889 29,570.885889 L29,570.885889 Z M19,556 L19,576 L32.1613848,576 L39,569.161385 L39,556 L19,556 Z M33.3720028,561.750926 L35.1024885,561.750926 C35.4981901,561.750926 35.8197428,561.429063 35.8197428,561.033671 L35.8197428,559.302773 C35.8197428,558.907484 35.4981901,558.585519 35.1024885,558.585519 L33.3720028,558.585519 C32.9767137,558.585519 32.6547485,558.907484 32.6547485,559.302773 L32.6547485,561.033671 C32.6547485,561.429063 32.9767137,561.750926 33.3720028,561.750926 L33.3720028,561.750926 Z M29,563.537719 C27.4146153,563.537719 26.1245888,564.827436 26.1245888,566.413233 C26.1245888,567.998618 27.4146153,569.288335 29,569.288335 C30.5854878,569.288335 31.8755144,567.998618 31.8755144,566.413233 C31.8755144,564.827436 30.5854878,563.537719 29,563.537719 L29,563.537719 Z" id="Fill-1"></path>
        </g>
    </g>
</svg>