<?xml version="1.0" encoding="UTF-8" standalone="no"?>
<svg width="20px" height="20px" viewBox="0 0 20 20" version="1.1" xmlns="http://www.w3.org/2000/svg" xmlns:xlink="http://www.w3.org/1999/xlink">
    <!-- Generator: Sketch 3.7.2 (28276) - http://www.bohemiancoding.com/sketch -->
    <title>Fill 9</title>
    <desc>Created with Sketch.</desc>
    <defs></defs>
    <g id="Contact" stroke="none" stroke-width="1" fill="none" fill-rule="evenodd">
        <g id="Contact-Mobile" transform="translate(-170.000000, -556.000000)" fill="#1D232F">
            <path d="M185.257375,571.257787 C184.074578,572.440482 182.234705,572.558442 180.916743,571.619189 C180.588308,571.677499 180.250704,571.709745 179.905065,571.709745 C176.735485,571.709745 174.166319,569.140167 174.166319,565.97069 C174.166319,565.608464 174.201346,565.254686 174.265323,564.911004 C173.454436,563.608804 173.611854,561.875147 174.743037,560.743861 C175.894413,559.592486 177.670308,559.447224 178.979411,560.307253 C179.280854,560.258524 179.58992,560.232047 179.905065,560.232047 C183.074542,560.232047 185.64412,562.801523 185.64412,565.971102 C185.64412,566.273266 185.620322,566.569455 185.575714,566.859256 C186.560811,568.180824 186.457377,570.058094 185.257375,571.257787 L185.257375,571.257787 Z M170,556 L170,576 L183.168395,576 L190,569.168395 L190,556 L170,556 Z M182.172686,565.717565 C181.045108,565.236245 179.195552,565.121891 178.638202,564.526732 C178.080852,563.931161 178.904205,563.310143 179.72797,563.323021 C180.551323,563.33559 180.868013,563.449841 181.210047,564.032534 C181.378282,564.319039 181.586387,564.51066 181.75421,564.631402 C181.993633,564.803655 182.311972,564.848676 182.570763,564.706608 C182.729314,564.619658 182.872103,564.460694 182.907543,564.17182 C182.996451,563.449841 182.426223,562.372951 180.652697,562.144756 C178.878861,561.916974 177.472712,562.452587 176.966049,563.476833 C176.459386,564.501388 177.067526,565.679653 178.093627,566.148094 C179.11983,566.616948 181.273302,566.490643 181.463275,567.579999 C181.653557,568.669356 180.46839,568.926499 179.740436,568.821519 C178.750084,568.678628 178.372198,567.947376 178.030062,567.288653 C177.688028,566.629826 176.459386,567.009772 176.661825,567.934499 C176.864675,568.859328 177.903757,569.999784 179.575806,569.999784 C181.247959,569.999784 182.5277,569.581617 183.021794,568.53007 C183.51558,567.478522 183.300366,566.198781 182.172686,565.717565 L182.172686,565.717565 Z" id="Fill-9"></path>
        </g>
    </g>
</svg>