<?xml version="1.0" encoding="UTF-8" standalone="no"?>
<svg width="20px" height="20px" viewBox="0 0 20 20" version="1.1" xmlns="http://www.w3.org/2000/svg" xmlns:xlink="http://www.w3.org/1999/xlink">
    <!-- Generator: Sketch 3.7.2 (28276) - http://www.bohemiancoding.com/sketch -->
    <title>Fill 6</title>
    <desc>Created with Sketch.</desc>
    <defs></defs>
    <g id="Contact" stroke="none" stroke-width="1" fill="none" fill-rule="evenodd">
        <g id="Contact-Mobile" transform="translate(-19.000000, -508.000000)" fill="#1D232F">
            <path d="M26.4630279,518.333637 L23.9776184,518.333637 L23.9776184,520.889926 L26.3669083,520.889926 C26.9500137,520.889926 27.4228853,520.417054 27.4228853,519.833949 L27.4228853,519.293392 C27.4228853,518.763034 26.9930769,518.333637 26.4630279,518.333637 L26.4630279,518.333637 Z M35.8328929,519.64717 L31.4278716,519.64717 C31.4278716,519.64717 31.3569924,521.081856 32.8874895,521.081856 C34.4182957,521.081856 34.2971417,520.263345 34.2971417,520.263345 L35.7921992,520.263345 C35.7921992,520.263345 35.8328929,520.596519 35.6912375,520.990888 C35.5499941,521.384844 35.0919576,522.506447 32.7260538,522.506447 C30.1847033,522.506447 29.6189056,520.324025 29.6189056,519.353763 C29.6189056,518.383912 29.8092905,515.645789 33.033987,515.645789 C36.3024679,515.645789 35.8328929,519.64717 35.8328929,519.64717 L35.8328929,519.64717 Z M28.104995,522.00102 C27.3371709,522.566818 26.286448,522.566818 26.286448,522.566818 L22.1438241,522.566818 L22.1438241,513.433285 L26.5491544,513.433285 C27.9637517,513.433285 28.9939732,514.150835 28.9939732,515.671957 C28.9939732,517.138065 27.8828793,517.414061 27.8828793,517.414061 C27.8828793,517.414061 29.2567827,517.898987 29.2567827,519.454827 C29.2567827,520.707989 28.8728191,521.435222 28.104995,522.00102 L28.104995,522.00102 Z M30.9473763,514.079955 L34.5141063,514.079955 L34.5141063,515.049806 L30.9473763,515.049806 L30.9473763,514.079955 Z M19,508 L19,528 L32.1683949,528 L39,521.168395 L39,508 L19,508 Z M32.9398248,516.979514 C31.5860106,516.979514 31.4850489,518.30304 31.4850489,518.30304 L34.2432611,518.30304 C34.2432611,518.30304 34.2935359,516.979514 32.9398248,516.979514 L32.9398248,516.979514 Z M27.0289286,516.226937 L27.0289286,515.822884 C27.0289286,515.412856 26.6964761,515.079992 26.286448,515.079992 L23.9776184,515.079992 L23.9776184,516.969418 L26.286448,516.969418 C26.6964761,516.969418 27.0289286,516.636965 27.0289286,516.226937 L27.0289286,516.226937 Z" id="Fill-6"></path>
        </g>
    </g>
</svg>