<?xml version="1.0" encoding="UTF-8" standalone="no"?>
<svg width="20px" height="20px" viewBox="0 0 20 20" version="1.1" xmlns="http://www.w3.org/2000/svg" xmlns:xlink="http://www.w3.org/1999/xlink">
    <!-- Generator: Sketch 3.7 (28169) - http://www.bohemiancoding.com/sketch -->
    <title>Fill 1</title>
    <desc>Created with Sketch.</desc>
    <defs></defs>
    <g id="About" stroke="none" stroke-width="1" fill="none" fill-rule="evenodd">
        <g id="About-Mobile" transform="translate(-43.000000, -99.000000)" fill="#FF0091">
            <path d="M57.9230769,111.766769 C54.8591795,111.766769 53.9116923,109.368513 53.6835897,107.828103 C53.6177436,106.668615 53.2122051,105.980718 52.9453333,105.980718 C52.678359,105.980718 52.2728205,106.668615 52.2069744,107.828103 C51.9788718,109.368513 51.0314872,111.766769 47.9674872,111.766769 C44.9035897,111.766769 43.9561026,109.368513 43.7281026,107.828103 C43.6628718,106.68 43.345641,106.354154 43,105.991487 L43,118.890667 L56.0893333,118.890667 L62.8906667,112.089436 L62.8906667,105.991487 C62.5449231,106.354154 62.2276923,106.68 62.1624615,107.828103 C61.9344615,109.368513 60.9869744,111.766769 57.9230769,111.766769 L57.9230769,111.766769 Z M57.9230769,110.941128 C60.9647179,110.941128 61.2781538,107.954462 61.2780513,107.068 C61.2779487,106.586564 61.306359,105.414256 60.4099487,105.028718 C59.6258462,104.691487 58.9077949,104.676718 57.9230769,104.676718 C56.938359,104.676718 56.2203077,104.691487 55.4361026,105.028718 C54.5397949,105.414256 54.5681026,106.586564 54.5681026,107.068 C54.568,107.954462 54.8814359,110.941128 57.9230769,110.941128 L57.9230769,110.941128 Z M43,99 L43,104.494667 C43.7,104.492821 44.8251282,104.295897 44.8251282,104.295897 C45.8158974,103.869744 46.7232821,103.851077 47.9674872,103.851077 C49.2117949,103.851077 50.1191795,103.869744 51.1099487,104.295897 C51.1099487,104.295897 52.2460513,104.494769 52.9453333,104.494769 C53.6446154,104.494769 54.7806154,104.295897 54.7806154,104.295897 C55.7714872,103.869744 56.6787692,103.851077 57.9230769,103.851077 C59.1673846,103.851077 60.0746667,103.869744 61.0655385,104.295897 C61.0655385,104.295897 62.1905641,104.492821 62.8906667,104.494667 L62.8906667,99 L43,99 Z M47.9674872,110.941128 C51.0091282,110.941128 51.3225641,107.954462 51.3225641,107.068 C51.3224615,106.586564 51.3507692,105.414256 50.4544615,105.028718 C49.6702564,104.691487 48.9522051,104.676718 47.9674872,104.676718 C46.9828718,104.676718 46.2647179,104.691487 45.4806154,105.028718 C44.5843077,105.414256 44.6126154,106.586564 44.6126154,107.068 C44.6124103,107.954462 44.9259487,110.941128 47.9674872,110.941128 L47.9674872,110.941128 Z" id="Fill-1"></path>
        </g>
    </g>
</svg>