<?xml version="1.0" encoding="UTF-8" standalone="no"?>
<svg width="20px" height="20px" viewBox="0 0 20 20" version="1.1" xmlns="http://www.w3.org/2000/svg" xmlns:xlink="http://www.w3.org/1999/xlink">
    <!-- Generator: Sketch 3.7 (28169) - http://www.bohemiancoding.com/sketch -->
    <title>Fill 1</title>
    <desc>Created with Sketch.</desc>
    <defs></defs>
    <g id="Contact" stroke="none" stroke-width="1" fill="none" fill-rule="evenodd">
        <g id="Mobile-MENU" transform="translate(-43.000000, -218.000000)" fill="#1D232F">
            <path d="M57.9230769,230.766769 C54.8591795,230.766769 53.9116923,228.368513 53.6835897,226.828103 C53.6177436,225.668615 53.2122051,224.980718 52.9453333,224.980718 C52.678359,224.980718 52.2728205,225.668615 52.2069744,226.828103 C51.9788718,228.368513 51.0314872,230.766769 47.9674872,230.766769 C44.9035897,230.766769 43.9561026,228.368513 43.7281026,226.828103 C43.6628718,225.68 43.345641,225.354154 43,224.991487 L43,237.890667 L56.0893333,237.890667 L62.8906667,231.089436 L62.8906667,224.991487 C62.5449231,225.354154 62.2276923,225.68 62.1624615,226.828103 C61.9344615,228.368513 60.9869744,230.766769 57.9230769,230.766769 L57.9230769,230.766769 Z M57.9230769,229.941128 C60.9647179,229.941128 61.2781538,226.954462 61.2780513,226.068 C61.2779487,225.586564 61.306359,224.414256 60.4099487,224.028718 C59.6258462,223.691487 58.9077949,223.676718 57.9230769,223.676718 C56.938359,223.676718 56.2203077,223.691487 55.4361026,224.028718 C54.5397949,224.414256 54.5681026,225.586564 54.5681026,226.068 C54.568,226.954462 54.8814359,229.941128 57.9230769,229.941128 L57.9230769,229.941128 Z M43,218 L43,223.494667 C43.7,223.492821 44.8251282,223.295897 44.8251282,223.295897 C45.8158974,222.869744 46.7232821,222.851077 47.9674872,222.851077 C49.2117949,222.851077 50.1191795,222.869744 51.1099487,223.295897 C51.1099487,223.295897 52.2460513,223.494769 52.9453333,223.494769 C53.6446154,223.494769 54.7806154,223.295897 54.7806154,223.295897 C55.7714872,222.869744 56.6787692,222.851077 57.9230769,222.851077 C59.1673846,222.851077 60.0746667,222.869744 61.0655385,223.295897 C61.0655385,223.295897 62.1905641,223.492821 62.8906667,223.494667 L62.8906667,218 L43,218 Z M47.9674872,229.941128 C51.0091282,229.941128 51.3225641,226.954462 51.3225641,226.068 C51.3224615,225.586564 51.3507692,224.414256 50.4544615,224.028718 C49.6702564,223.691487 48.9522051,223.676718 47.9674872,223.676718 C46.9828718,223.676718 46.2647179,223.691487 45.4806154,224.028718 C44.5843077,224.414256 44.6126154,225.586564 44.6126154,226.068 C44.6124103,226.954462 44.9259487,229.941128 47.9674872,229.941128 L47.9674872,229.941128 Z" id="Fill-1"></path>
        </g>
    </g>
</svg>