<svg width="20" height="20" viewBox="0 0 20 20" xmlns="http://www.w3.org/2000/svg"><title>Fill 1</title><path d="M18.307 7.111h-4.041a5.547 5.547 0 0 0-8.531 0H1.693V1.438h16.614V7.11zM10 14.886a4.478 4.478 0 0 1-4.473-4.473A4.478 4.478 0 0 1 10 5.94a4.478 4.478 0 0 1 4.473 4.473A4.478 4.478 0 0 1 10 14.886zM0 0v20h13.161L20 13.161V0H0zm14.372 5.75h1.73a.718.718 0 0 0 .718-.716V3.303a.718.718 0 0 0-.718-.717h-1.73a.718.718 0 0 0-.717.717v1.73c0 .396.322.718.717.718zM10 7.539a2.879 2.879 0 0 0-2.875 2.875A2.879 2.879 0 0 0 10 13.288a2.879 2.879 0 0 0 2.876-2.875A2.879 2.879 0 0 0 10 7.538z" fill="#1D232F" fill-rule="evenodd"/></svg>